<?xml version="1.0" standalone="no"?>
<!DOCTYPE svg PUBLIC "-//W3C//DTD SVG 20010904//EN"
 "http://www.w3.org/TR/2001/REC-SVG-20010904/DTD/svg10.dtd">
<svg version="1.0" xmlns="http://www.w3.org/2000/svg"
 width="260.000000pt" height="260.000000pt" viewBox="0 0 260.000000 260.000000"
 preserveAspectRatio="xMidYMid meet">
<metadata>
Created by potrace 1.14, written by Peter Selinger 2001-2017
</metadata>
<g transform="translate(0.000000,260.000000) scale(0.100000,-0.100000)"
fill="#000000" stroke="none">
<path d="M260 2210 c0 -5 -6 -10 -12 -10 -7 0 -34 -23 -60 -52 l-48 -51 0
-613 0 -613 180 -181 c98 -99 177 -180 174 -180 -3 0 8 -11 24 -25 17 -14 34
-25 40 -25 5 0 15 -6 21 -14 11 -13 66 -31 84 -27 5 1 6 -3 2 -9 -3 -6 -11 -8
-16 -5 -5 3 -6 -1 -3 -9 5 -14 95 -16 777 -16 448 0 766 4 758 9 -16 10 -6 31
14 31 27 0 101 39 140 74 22 20 36 36 32 36 -4 0 1 9 10 20 22 26 55 138 42
146 -5 3 -5 13 -1 22 10 21 9 133 -2 150 -4 7 -3 12 3 12 5 0 13 -5 16 -10 8
-13 25 -3 25 13 0 8 -3 8 -9 -1 -14 -23 -29 9 -27 61 1 26 -3 47 -9 47 -6 0
-6 3 1 8 6 4 10 42 9 93 -1 70 2 86 13 82 7 -3 10 -9 5 -12 -12 -9 -14 -31 -2
-31 6 0 7 -5 2 -12 -11 -18 -12 -67 -1 -74 4 -3 5 -11 1 -17 -11 -18 -12 -37
-2 -37 12 0 11 -28 15 352 2 243 0 339 -8 344 -7 4 -8 3 -4 -4 4 -7 1 -12 -8
-12 -10 0 -16 9 -16 23 0 13 -5 28 -12 35 -7 7 -9 12 -4 12 19 0 -51 79 -228
257 -105 106 -196 193 -202 193 -7 0 -14 7 -18 15 -5 13 -109 15 -851 15 -557
0 -845 -3 -845 -10z m2190 -910 c0 -5 -4 -10 -10 -10 -5 0 -10 5 -10 10 0 6 5
10 10 10 6 0 10 -4 10 -10z m0 -95 c0 -8 -7 -15 -15 -15 -16 0 -20 12 -8 23
11 12 23 8 23 -8z"/>
<path d="M2441 971 c-9 -6 -10 -11 -2 -15 6 -4 11 -12 11 -17 0 -6 -6 -7 -12
-3 -10 6 -10 4 0 -8 9 -11 9 -18 2 -21 -6 -3 -5 -4 2 -3 8 2 13 18 13 39 1 20
1 37 0 37 0 0 -6 -4 -14 -9z"/>
<path d="M2443 835 c0 -8 4 -12 9 -9 5 3 6 10 3 15 -9 13 -12 11 -12 -6z"/>
<path d="M2440 790 c6 -11 12 -20 14 -20 2 0 2 9 -1 20 -3 11 -9 20 -15 20 -5
0 -4 -9 2 -20z"/>
</g>
</svg>
